<svg width="15" height="13" viewBox="0 0 15 13" fill="none" xmlns="http://www.w3.org/2000/svg">
<path d="M12.75 0C13.9005 5.15364e-07 14.8328 0.932565 14.833 2.08301V10.083C14.8328 11.2335 13.9005 12.167 12.75 12.167H2.08301C0.932822 12.1666 0.000175802 11.2332 0 10.083V2.08301C0.000175893 0.932781 0.932822 0.000351769 2.08301 0H12.75ZM1.5 10.083C1.50018 10.4048 1.76125 10.6666 2.08301 10.667H12.75C13.0721 10.667 13.3328 10.405 13.333 10.083V4.11719L8.49219 7.2002C8.48367 7.20563 8.47455 7.21173 8.46582 7.2168C8.14823 7.40111 7.78712 7.498 7.41992 7.49805C7.0525 7.49799 6.69077 7.40134 6.37305 7.2168C6.36449 7.21182 6.35601 7.20648 6.34766 7.20117L1.5 4.11523V10.083ZM2.08301 1.5C1.76125 1.50035 1.50018 1.76121 1.5 2.08301V2.33789L7.12988 5.9209C7.21804 5.9714 7.31829 5.99799 7.41992 5.99805C7.51984 5.998 7.61802 5.9717 7.70508 5.92285L13.333 2.33789V2.08301C13.3328 1.76099 13.0721 1.5 12.75 1.5H2.08301Z" fill="#404040"/>
</svg>
